adventprofmm_reg_krn.ufo
<glyph name="exclam" format="1">
  <advance width="147"/>
  <unicode hex="0021"/>
  <outline>
    <contour>
      <point x="40" y="671" type="curve" smooth="yes"/>
      <point x="50" y="120" type="line"/>
      <point x="97" y="120" type="line"/>
      <point x="106" y="672" type="line" smooth="yes"/>
      <point x="106" y="696"/>
      <point x="95" y="708"/>
      <point x="73" y="708" type="curve" smooth="yes"/>
      <point x="51" y="708"/>
      <point x="40" y="696"/>
    </contour>
    <contour>
      <point x="73" y="67" type="curve" smooth="yes"/>
      <point x="54" y="67"/>
      <point x="40" y="52"/>
      <point x="40" y="34" type="curve" smooth="yes"/>
      <point x="40" y="15"/>
      <point x="54" y="0"/>
      <point x="73" y="0" type="curve" smooth="yes"/>
      <point x="92" y="0"/>
      <point x="106" y="15"/>
      <point x="106" y="34" type="curve" smooth="yes"/>
      <point x="106" y="52"/>
      <point x="92" y="67"/>
    </contour>
  </outline>
</glyph>
<glyph name="ampersand" format="1">
  <advance width="527"/>
  <unicode hex="0026"/>
  <outline>
    <contour>
      <point x="378" y="651" type="curve"/>
      <point x="403" y="702" type="line"/>
      <point x="403" y="702"/>
      <point x="295" y="702"/>
      <point x="238" y="702" type="curve" smooth="yes"/>
      <point x="145" y="702"/>
      <point x="91" y="636"/>
      <point x="96" y="546" type="curve" smooth="yes"/>
      <point x="97" y="505"/>
      <point x="106" y="451"/>
      <point x="163" y="402" type="curve"/>
      <point x="160" y="402"/>
      <point x="156" y="403"/>
      <point x="154" y="402" type="curve"/>
      <point x="82" y="396"/>
      <point x="30" y="358"/>
      <point x="30" y="254" type="curve" smooth="yes"/>
      <point x="30" y="222"/>
      <point x="30" y="191"/>
      <point x="30" y="159" type="curve" smooth="yes"/>
      <point x="33" y="46"/>
      <point x="97" y="-6"/>
      <point x="207" y="-6" type="curve" smooth="yes"/>
      <point x="252" y="-6"/>
      <point x="321" y="14"/>
      <point x="362" y="62" type="curve"/>
      <point x="377" y="26"/>
      <point x="407" y="4"/>
      <point x="453" y="-9" type="curve"/>
      <point x="466" y="34" type="line"/>
      <point x="422" y="50"/>
      <point x="398" y="84"/>
      <point x="398" y="136" type="curve" smooth="yes"/>
      <point x="398" y="349" type="line"/>
      <point x="474" y="349" type="line"/>
      <point x="497" y="403" type="line"/>
      <point x="398" y="403" type="line"/>
      <point x="398" y="505" type="line"/>
      <point x="345" y="505" type="line"/>
      <point x="345" y="402" type="line"/>
      <point x="322" y="402"/>
      <point x="299" y="402"/>
      <point x="295" y="402" type="curve" smooth="yes"/>
      <point x="214" y="402"/>
      <point x="152" y="464"/>
      <point x="152" y="543" type="curve" smooth="yes"/>
      <point x="149" y="607"/>
      <point x="185" y="651"/>
      <point x="241" y="651" type="curve" smooth="yes"/>
      <point x="277" y="651"/>
      <point x="378" y="651"/>
    </contour>
    <contour>
      <point x="345" y="349" type="curve"/>
      <point x="345" y="176" type="line" smooth="yes"/>
      <point x="345" y="106"/>
      <point x="299" y="57"/>
      <point x="218" y="50" type="curve" smooth="yes"/>
      <point x="132" y="42"/>
      <point x="86" y="87"/>
      <point x="86" y="164" type="curve" smooth="yes"/>
      <point x="86" y="169"/>
      <point x="86" y="248"/>
      <point x="86" y="251" type="curve" smooth="yes"/>
      <point x="86" y="342"/>
      <point x="147" y="349"/>
      <point x="184" y="349" type="curve" smooth="yes"/>
      <point x="213" y="349"/>
      <point x="291" y="349"/>
    </contour>
  </outline>
</glyph>
<glyph name="asterisk" format="1">
  <advance width="352"/>
  <unicode hex="002A"/>
  <outline>
    <contour>
      <point x="41" y="625" type="line"/>
      <point x="23" y="577" type="line"/>
      <point x="129" y="539" type="line"/>
      <point x="64" y="449" type="line"/>
      <point x="109" y="418" type="line"/>
      <point x="174" y="514" type="line"/>
      <point x="243" y="418" type="line"/>
      <point x="284" y="449" type="line"/>
      <point x="218" y="539" type="line"/>
      <point x="327" y="577" type="line"/>
      <point x="306" y="625" type="line"/>
      <point x="199" y="585" type="line"/>
      <point x="199" y="698" type="line"/>
      <point x="145" y="698" type="line"/>
      <point x="145" y="585" type="line"/>
    </contour>
  </outline>
</glyph>
<glyph name="greater" format="1">
  <advance width="374"/>
  <unicode hex="003E"/>
  <outline>
    <contour>
      <point x="30" y="597" type="line"/>
      <point x="269" y="356" type="line"/>
      <point x="30" y="118" type="line"/>
      <point x="68" y="79" type="line"/>
      <point x="345" y="358" type="line"/>
      <point x="68" y="635" type="line"/>
    </contour>
  </outline>
</glyph>
<glyph name="W" format="1">
  <advance width="731"/>
  <unicode hex="0057"/>
  <outline>
    <contour>
      <point x="404" y="698" type="line"/>
      <point x="326" y="698" type="line"/>
      <point x="219" y="69" type="line"/>
      <point x="78" y="698" type="line"/>
      <point x="17" y="698" type="line"/>
      <point x="182" y="0" type="line"/>
      <point x="267" y="0" type="line"/>
      <point x="366" y="597" type="line"/>
      <point x="464" y="0" type="line"/>
      <point x="548" y="0" type="line"/>
      <point x="711" y="698" type="line"/>
      <point x="652" y="698" type="line"/>
      <point x="511" y="69" type="line"/>
    </contour>
  </outline>
</glyph>
<glyph name="X" format="1">
  <advance width="554"/>
  <unicode hex="0058"/>
  <outline>
    <contour>
      <point x="278" y="405" type="line"/>
      <point x="106" y="698" type="line"/>
      <point x="43" y="698" type="line"/>
      <point x="245" y="351" type="line"/>
      <point x="25" y="0" type="line"/>
      <point x="93" y="0" type="line"/>
      <point x="278" y="293" type="line"/>
      <point x="461" y="0" type="line"/>
      <point x="530" y="0" type="line"/>
      <point x="312" y="351" type="line"/>
      <point x="514" y="698" type="line"/>
      <point x="452" y="698" type="line"/>
    </contour>
  </outline>
</glyph>
<glyph name="j" format="1">
  <advance width="199"/>
  <unicode hex="006A"/>
  <outline>
    <contour>
      <point x="149" y="-63" type="curve" smooth="yes"/>
      <point x="149" y="499" type="line"/>
      <point x="29" y="499" type="line"/>
      <point x="29" y="447" type="line"/>
      <point x="93" y="447" type="line"/>
      <point x="93" y="-62" type="line" smooth="yes"/>
      <point x="93" y="-90"/>
      <point x="87" y="-113"/>
      <point x="74" y="-131" type="curve" smooth="yes"/>
      <point x="63" y="-146"/>
      <point x="48" y="-158"/>
      <point x="27" y="-166" type="curve"/>
      <point x="43" y="-209" type="line"/>
      <point x="76" y="-198"/>
      <point x="99" y="-185"/>
      <point x="117" y="-166" type="curve" smooth="yes"/>
      <point x="140" y="-141"/>
      <point x="149" y="-108"/>
    </contour>
    <contour>
      <point x="157" y="674" type="curve" smooth="yes"/>
      <point x="157" y="693"/>
      <point x="141" y="707"/>
      <point x="123" y="707" type="curve" smooth="yes"/>
      <point x="104" y="707"/>
      <point x="89" y="693"/>
      <point x="89" y="674" type="curve" smooth="yes"/>
      <point x="89" y="656"/>
      <point x="104" y="641"/>
      <point x="123" y="641" type="curve" smooth="yes"/>
      <point x="141" y="641"/>
      <point x="157" y="656"/>
    </contour>
  </outline>
</glyph>
<glyph name="k" format="1">
  <advance width="426"/>
  <unicode hex="006B"/>
  <outline>
    <contour>
      <point x="189" y="351" type="curve"/>
      <point x="337" y="480" type="line"/>
      <point x="297" y="518" type="line"/>
      <point x="97" y="334" type="line"/>
      <point x="97" y="698" type="line"/>
      <point x="41" y="698" type="line"/>
      <point x="41" y="0" type="line"/>
      <point x="97" y="0" type="line"/>
      <point x="97" y="272" type="line"/>
      <point x="149" y="316" type="line"/>
      <point x="340" y="0" type="line"/>
      <point x="407" y="0" type="line"/>
      <point x="307" y="158"/>
      <point x="234" y="276"/>
    </contour>
  </outline>
</glyph>
<glyph name="n" format="1">
  <advance width="442"/>
  <unicode hex="006E"/>
  <outline>
    <contour>
      <point x="351" y="341" type="curve" smooth="yes"/>
      <point x="351" y="0" type="line"/>
      <point x="406" y="0" type="line"/>
      <point x="406" y="344" type="line" smooth="yes"/>
      <point x="406" y="449"/>
      <point x="342" y="508"/>
      <point x="232" y="508" type="curve" smooth="yes"/>
      <point x="183" y="508"/>
      <point x="132" y="491"/>
      <point x="94" y="465" type="curve"/>
      <point x="94" y="499" type="line"/>
      <point x="38" y="499" type="line"/>
      <point x="38" y="0" type="line"/>
      <point x="94" y="0" type="line"/>
      <point x="94" y="424" type="line"/>
      <point x="135" y="447"/>
      <point x="176" y="458"/>
      <point x="221" y="458" type="curve" smooth="yes"/>
      <point x="285" y="458"/>
      <point x="351" y="431"/>
    </contour>
  </outline>
</glyph>
<glyph name="t" format="1">
  <advance width="240"/>
  <unicode hex="0074"/>
  <outline>
    <contour>
      <point x="95" y="132" type="curve" smooth="yes"/>
      <point x="95" y="447" type="line"/>
      <point x="191" y="447" type="line"/>
      <point x="215" y="499" type="line"/>
      <point x="95" y="499" type="line"/>
      <point x="95" y="698" type="line"/>
      <point x="39" y="698" type="line"/>
      <point x="39" y="132" type="line" smooth="yes"/>
      <point x="39" y="53"/>
      <point x="70" y="8"/>
      <point x="144" y="-13" type="curve"/>
      <point x="161" y="30" type="line"/>
      <point x="117" y="45"/>
      <point x="95" y="79"/>
    </contour>
  </outline>
</glyph>
<glyph name="cent" format="1">
  <advance width="382"/>
  <unicode hex="00A2"/>
  <outline>
    <contour>
      <point x="333" y="430" type="curve"/>
      <point x="349" y="476" type="line"/>
      <point x="291" y="503"/>
      <point x="224" y="516"/>
      <point x="167" y="504" type="curve" smooth="yes"/>
      <point x="122" y="494"/>
      <point x="83" y="470"/>
      <point x="58" y="426" type="curve" smooth="yes"/>
      <point x="38" y="394"/>
      <point x="32" y="362"/>
      <point x="30" y="318" type="curve"/>
      <point x="30" y="173" type="line" smooth="yes"/>
      <point x="30" y="75"/>
      <point x="74" y="23"/>
      <point x="142" y="1" type="curve" smooth="yes"/>
      <point x="201" y="-18"/>
      <point x="284" y="-13"/>
      <point x="351" y="5" type="curve"/>
      <point x="340" y="55" type="line"/>
      <point x="340" y="55"/>
      <point x="218" y="26"/>
      <point x="154" y="52" type="curve" smooth="yes"/>
      <point x="101" y="71"/>
      <point x="85" y="119"/>
      <point x="85" y="185" type="curve" smooth="yes"/>
      <point x="85" y="305" type="line" smooth="yes"/>
      <point x="85" y="340"/>
      <point x="91" y="371"/>
      <point x="103" y="394" type="curve" smooth="yes"/>
      <point x="120" y="426"/>
      <point x="145" y="446"/>
      <point x="176" y="453" type="curve" smooth="yes"/>
      <point x="219" y="464"/>
      <point x="286" y="452"/>
    </contour>
    <contour>
      <point x="188" y="-113" type="line"/>
      <point x="244" y="-113" type="line"/>
      <point x="244" y="621" type="line"/>
      <point x="188" y="621" type="line"/>
    </contour>
  </outline>
</glyph>
<glyph name="currency" format="1">
  <advance width="465"/>
  <unicode hex="00A4"/>
  <outline>
    <contour>
      <point x="350" y="365" type="curve"/>
      <point x="432" y="448" type="line"/>
      <point x="397" y="483" type="line"/>
      <point x="314" y="400" type="line"/>
      <point x="291" y="418"/>
      <point x="263" y="428"/>
      <point x="232" y="428" type="curve" smooth="yes"/>
      <point x="200" y="428"/>
      <point x="171" y="418"/>
      <point x="147" y="400" type="curve"/>
      <point x="66" y="483" type="line"/>
      <point x="31" y="448" type="line"/>
      <point x="112" y="365" type="line"/>
      <point x="95" y="342"/>
      <point x="87" y="313"/>
      <point x="87" y="283" type="curve" smooth="yes"/>
      <point x="87" y="251"/>
      <point x="97" y="222"/>
      <point x="113" y="199" type="curve"/>
      <point x="31" y="117" type="line"/>
      <point x="66" y="81" type="line"/>
      <point x="148" y="164" type="line"/>
      <point x="171" y="147"/>
      <point x="200" y="137"/>
      <point x="232" y="137" type="curve" smooth="yes"/>
      <point x="263" y="137"/>
      <point x="290" y="147"/>
      <point x="314" y="164" type="curve"/>
      <point x="397" y="81" type="line"/>
      <point x="432" y="117" type="line"/>
      <point x="350" y="199" type="line"/>
      <point x="366" y="222"/>
      <point x="376" y="251"/>
      <point x="376" y="283" type="curve" smooth="yes"/>
      <point x="376" y="313"/>
      <point x="366" y="342"/>
    </contour>
    <contour>
      <point x="232" y="188" type="curve" smooth="yes"/>
      <point x="179" y="188"/>
      <point x="137" y="230"/>
      <point x="137" y="283" type="curve" smooth="yes"/>
      <point x="137" y="334"/>
      <point x="179" y="376"/>
      <point x="232" y="376" type="curve" smooth="yes"/>
      <point x="284" y="376"/>
      <point x="325" y="334"/>
      <point x="325" y="283" type="curve" smooth="yes"/>
      <point x="325" y="230"/>
      <point x="284" y="188"/>
    </contour>
  </outline>
</glyph>
<glyph name="overscore" format="1">
  <advance width="374"/>
  <unicode hex="00AF"/>
  <outline>
    <contour>
      <point x="296" y="675" type="line"/>
      <point x="76" y="675" type="line"/>
      <point x="76" y="617" type="line"/>
      <point x="296" y="617" type="line"/>
    </contour>
  </outline>
</glyph>
<glyph name="degree" format="1">
  <advance width="347"/>
  <unicode hex="00B0"/>
  <outline>
    <contour>
      <point x="318" y="563" type="curve" smooth="yes"/>
      <point x="318" y="643"/>
      <point x="253" y="708"/>
      <point x="173" y="708" type="curve" smooth="yes"/>
      <point x="92" y="708"/>
      <point x="27" y="643"/>
      <point x="27" y="563" type="curve" smooth="yes"/>
      <point x="27" y="483"/>
      <point x="92" y="418"/>
      <point x="173" y="418" type="curve" smooth="yes"/>
      <point x="253" y="418"/>
      <point x="318" y="483"/>
    </contour>
    <contour>
      <point x="173" y="658" type="curve" smooth="yes"/>
      <point x="224" y="658"/>
      <point x="267" y="615"/>
      <point x="267" y="563" type="curve" smooth="yes"/>
      <point x="267" y="512"/>
      <point x="224" y="469"/>
      <point x="173" y="469" type="curve" smooth="yes"/>
      <point x="121" y="469"/>
      <point x="78" y="512"/>
      <point x="78" y="563" type="curve" smooth="yes"/>
      <point x="78" y="615"/>
      <point x="121" y="658"/>
    </contour>
  </outline>
</glyph>
<glyph name="acute" format="1">
  <advance width="238"/>
  <unicode hex="00B4"/>
  <outline>
    <contour>
      <point x="144" y="682" type="line"/>
      <point x="157" y="696"/>
      <point x="155" y="719"/>
      <point x="137" y="729" type="curve" smooth="yes"/>
      <point x="120" y="739"/>
      <point x="100" y="728"/>
      <point x="94" y="710" type="curve" smooth="yes"/>
      <point x="56" y="603" type="line"/>
      <point x="91" y="603" type="line"/>
    </contour>
  </outline>
</glyph>
<glyph name="mu" format="1">
  <advance width="464"/>
  <unicode hex="00B5"/>
  <outline>
    <contour>
      <point x="408" y="94" type="curve" smooth="yes"/>
      <point x="408" y="508" type="line"/>
      <point x="351" y="496" type="line"/>
      <point x="351" y="153" type="line" smooth="yes"/>
      <point x="351" y="78"/>
      <point x="317" y="43"/>
      <point x="249" y="43" type="curve" smooth="yes"/>
      <point x="161" y="43"/>
      <point x="111" y="89"/>
      <point x="96" y="105" type="curve"/>
      <point x="96" y="499" type="line"/>
      <point x="39" y="499" type="line"/>
      <point x="39" y="-200" type="line"/>
      <point x="96" y="-209" type="line"/>
      <point x="96" y="44" type="line"/>
      <point x="96" y="44"/>
      <point x="150" y="-12"/>
      <point x="246" y="-12" type="curve" smooth="yes"/>
      <point x="296" y="-12"/>
      <point x="339" y="9"/>
      <point x="360" y="44" type="curve"/>
      <point x="382" y="2"/>
      <point x="408" y="-6"/>
      <point x="408" y="-6" type="curve"/>
      <point x="435" y="26" type="line"/>
      <point x="435" y="26"/>
      <point x="408" y="51"/>
    </contour>
  </outline>
</glyph>
<glyph name="questiondown" format="1">
  <advance width="408"/>
  <unicode hex="00BF"/>
  <outline>
    <contour>
      <point x="378" y="161" type="curve"/>
      <point x="322" y="161" type="line"/>
      <point x="322" y="76"/>
      <point x="262" y="35"/>
      <point x="201" y="37" type="curve" smooth="yes"/>
      <point x="142" y="38"/>
      <point x="84" y="80"/>
      <point x="84" y="157" type="curve" smooth="yes"/>
      <point x="84" y="224"/>
      <point x="124" y="260"/>
      <point x="162" y="302" type="curve" smooth="yes"/>
      <point x="199" y="345"/>
      <point x="239" y="393"/>
      <point x="239" y="480" type="curve" smooth="yes"/>
      <point x="239" y="572" type="line"/>
      <point x="187" y="572" type="line"/>
      <point x="187" y="543"/>
      <point x="187" y="514"/>
      <point x="187" y="485" type="curve" smooth="yes"/>
      <point x="187" y="402"/>
      <point x="150" y="371"/>
      <point x="111" y="326" type="curve" smooth="yes"/>
      <point x="67" y="275"/>
      <point x="29" y="229"/>
      <point x="29" y="155" type="curve" smooth="yes"/>
      <point x="29" y="48"/>
      <point x="113" y="-14"/>
      <point x="201" y="-15" type="curve" smooth="yes"/>
      <point x="289" y="-18"/>
      <point x="378" y="38"/>
    </contour>
    <contour>
      <point x="212" y="701" type="curve" smooth="yes"/>
      <point x="194" y="701"/>
      <point x="179" y="685"/>
      <point x="179" y="667" type="curve" smooth="yes"/>
      <point x="179" y="648"/>
      <point x="194" y="634"/>
      <point x="212" y="634" type="curve" smooth="yes"/>
      <point x="231" y="634"/>
      <point x="246" y="648"/>
      <point x="246" y="667" type="curve" smooth="yes"/>
      <point x="246" y="685"/>
      <point x="231" y="701"/>
    </contour>
  </outline>
</glyph>
<glyph name="Acircumflex" format="1">
  <advance width="545"/>
  <unicode hex="00C2"/>
  <outline>
    <contour>
      <point x="525" y="0" type="line"/>
      <point x="298" y="698" type="line"/>
      <point x="245" y="698" type="line"/>
      <point x="21" y="0" type="line"/>
      <point x="81" y="0" type="line"/>
      <point x="159" y="244" type="line"/>
      <point x="386" y="244" type="line"/>
      <point x="466" y="0" type="line"/>
    </contour>
    <contour>
      <point x="174" y="299" type="line"/>
      <point x="271" y="612" type="line"/>
      <point x="371" y="299" type="line"/>
    </contour>
    <contour>
      <point x="148" y="780" type="line"/>
      <point x="186" y="741" type="line"/>
      <point x="280" y="831" type="line"/>
      <point x="369" y="743" type="line"/>
      <point x="408" y="781" type="line"/>
      <point x="280" y="906" type="line"/>
    </contour>
  </outline>
</glyph>
<glyph name="Icircumflex" format="1">
  <advance width="270"/>
  <unicode hex="00CE"/>
  <outline>
    <contour>
      <point x="41" y="649" type="line"/>
      <point x="108" y="647" type="line"/>
      <point x="108" y="0" type="line"/>
      <point x="164" y="0" type="line"/>
      <point x="164" y="698" type="line"/>
      <point x="41" y="698" type="line"/>
    </contour>
    <contour>
      <point x="6" y="777" type="line"/>
      <point x="45" y="738" type="line"/>
      <point x="138" y="827" type="line"/>
      <point x="227" y="740" type="line"/>
      <point x="266" y="778" type="line"/>
      <point x="138" y="903" type="line"/>
    </contour>
  </outline>
</glyph>
<glyph name="Uacute" format="1">
  <advance width="494"/>
  <unicode hex="00DA"/>
  <outline>
    <contour>
      <point x="455" y="185" type="curve" smooth="yes"/>
      <point x="455" y="698" type="line"/>
      <point x="400" y="698" type="line"/>
      <point x="400" y="186" type="line" smooth="yes"/>
      <point x="400" y="140"/>
      <point x="385" y="106"/>
      <point x="361" y="81" type="curve" smooth="yes"/>
      <point x="334" y="54"/>
      <point x="294" y="42"/>
      <point x="246" y="42" type="curve" smooth="yes"/>
      <point x="204" y="42"/>
      <point x="166" y="53"/>
      <point x="140" y="74" type="curve" smooth="yes"/>
      <point x="109" y="98"/>
      <point x="92" y="135"/>
      <point x="92" y="186" type="curve" smooth="yes"/>
      <point x="92" y="698" type="line"/>
      <point x="37" y="698" type="line"/>
      <point x="37" y="185" type="line" smooth="yes"/>
      <point x="37" y="118"/>
      <point x="57" y="68"/>
      <point x="98" y="36" type="curve" smooth="yes"/>
      <point x="140" y="4"/>
      <point x="189" y="-11"/>
      <point x="247" y="-11" type="curve" smooth="yes"/>
      <point x="303" y="-11"/>
      <point x="352" y="4"/>
      <point x="393" y="36" type="curve" smooth="yes"/>
      <point x="434" y="68"/>
      <point x="455" y="118"/>
    </contour>
    <contour>
      <point x="268" y="849" type="curve"/>
      <point x="229" y="743" type="line"/>
      <point x="264" y="743" type="line"/>
      <point x="318" y="822" type="line"/>
      <point x="330" y="836"/>
      <point x="329" y="859"/>
      <point x="312" y="869" type="curve" smooth="yes"/>
      <point x="294" y="879"/>
      <point x="273" y="868"/>
    </contour>
  </outline>
</glyph>
<glyph name="aacute" format="1">
  <advance width="443"/>
  <unicode hex="00E1"/>
  <outline>
    <contour>
      <point x="354" y="349" type="curve"/>
      <point x="307" y="375"/>
      <point x="244" y="402"/>
      <point x="179" y="402" type="curve" smooth="yes"/>
      <point x="98" y="402"/>
      <point x="26" y="363"/>
      <point x="26" y="251" type="curve" smooth="yes"/>
      <point x="26" y="223"/>
      <point x="26" y="196"/>
      <point x="26" y="168" type="curve" smooth="yes"/>
      <point x="26" y="21"/>
      <point x="124" y="-14"/>
      <point x="252" y="-10" type="curve" smooth="yes"/>
      <point x="302" y="-9"/>
      <point x="410" y="0"/>
      <point x="410" y="0" type="curve"/>
      <point x="410" y="96"/>
      <point x="410" y="191"/>
      <point x="410" y="287" type="curve" smooth="yes"/>
      <point x="410" y="375"/>
      <point x="402" y="444"/>
      <point x="339" y="480" type="curve" smooth="yes"/>
      <point x="297" y="504"/>
      <point x="248" y="507"/>
      <point x="202" y="507" type="curve"/>
      <point x="200" y="464" type="line"/>
      <point x="237" y="464"/>
      <point x="271" y="461"/>
      <point x="296" y="449" type="curve" smooth="yes"/>
      <point x="333" y="432"/>
      <point x="354" y="404"/>
    </contour>
    <contour>
      <point x="354" y="302" type="curve"/>
      <point x="354" y="217"/>
      <point x="354" y="132"/>
      <point x="354" y="46" type="curve"/>
      <point x="354" y="46"/>
      <point x="313" y="42"/>
      <point x="248" y="38" type="curve" smooth="yes"/>
      <point x="115" y="33"/>
      <point x="81" y="80"/>
      <point x="81" y="175" type="curve" smooth="yes"/>
      <point x="81" y="195"/>
      <point x="81" y="226"/>
      <point x="81" y="249" type="curve" smooth="yes"/>
      <point x="81" y="339"/>
      <point x="138" y="354"/>
      <point x="174" y="354" type="curve" smooth="yes"/>
      <point x="238" y="354"/>
      <point x="299" y="329"/>
    </contour>
    <contour>
      <point x="244" y="654" type="curve" smooth="yes"/>
      <point x="206" y="548" type="line"/>
      <point x="241" y="548" type="line"/>
      <point x="294" y="627" type="line"/>
      <point x="307" y="641"/>
      <point x="305" y="664"/>
      <point x="288" y="674" type="curve" smooth="yes"/>
      <point x="270" y="684"/>
      <point x="250" y="673"/>
    </contour>
  </outline>
</glyph>
<glyph name="atilde" format="1">
  <advance width="448"/>
  <unicode hex="00E3"/>
  <outline>
    <contour>
      <point x="356" y="349" type="curve"/>
      <point x="310" y="375"/>
      <point x="246" y="402"/>
      <point x="181" y="402" type="curve" smooth="yes"/>
      <point x="101" y="402"/>
      <point x="28" y="363"/>
      <point x="28" y="251" type="curve" smooth="yes"/>
      <point x="28" y="223"/>
      <point x="28" y="196"/>
      <point x="28" y="168" type="curve" smooth="yes"/>
      <point x="28" y="21"/>
      <point x="126" y="-14"/>
      <point x="255" y="-10" type="curve" smooth="yes"/>
      <point x="304" y="-9"/>
      <point x="412" y="0"/>
      <point x="412" y="0" type="curve"/>
      <point x="412" y="96"/>
      <point x="412" y="191"/>
      <point x="412" y="287" type="curve" smooth="yes"/>
      <point x="412" y="375"/>
      <point x="404" y="444"/>
      <point x="341" y="480" type="curve" smooth="yes"/>
      <point x="300" y="504"/>
      <point x="250" y="507"/>
      <point x="204" y="507" type="curve"/>
      <point x="202" y="464" type="line"/>
      <point x="239" y="464"/>
      <point x="273" y="461"/>
      <point x="299" y="449" type="curve" smooth="yes"/>
      <point x="335" y="432"/>
      <point x="356" y="404"/>
    </contour>
    <contour>
      <point x="356" y="302" type="curve"/>
      <point x="356" y="217"/>
      <point x="356" y="132"/>
      <point x="356" y="46" type="curve"/>
      <point x="356" y="46"/>
      <point x="315" y="42"/>
      <point x="250" y="38" type="curve" smooth="yes"/>
      <point x="117" y="33"/>
      <point x="83" y="80"/>
      <point x="83" y="175" type="curve" smooth="yes"/>
      <point x="83" y="195"/>
      <point x="83" y="226"/>
      <point x="83" y="249" type="curve" smooth="yes"/>
      <point x="83" y="339"/>
      <point x="140" y="354"/>
      <point x="176" y="354" type="curve" smooth="yes"/>
      <point x="240" y="354"/>
      <point x="301" y="329"/>
    </contour>
    <contour>
      <point x="350" y="583" type="curve"/>
      <point x="329" y="630" type="line"/>
      <point x="316" y="619"/>
      <point x="295" y="610"/>
      <point x="277" y="610" type="curve" smooth="yes"/>
      <point x="263" y="610"/>
      <point x="217" y="636"/>
      <point x="169" y="636" type="curve" smooth="yes"/>
      <point x="141" y="636"/>
      <point x="114" y="628"/>
      <point x="91" y="604" type="curve"/>
      <point x="113" y="558" type="line"/>
      <point x="127" y="570"/>
      <point x="139" y="576"/>
      <point x="158" y="577" type="curve" smooth="yes"/>
      <point x="189" y="580"/>
      <point x="233" y="553"/>
      <point x="279" y="553" type="curve" smooth="yes"/>
      <point x="303" y="553"/>
      <point x="327" y="561"/>
    </contour>
  </outline>
</glyph>
<glyph name="ccedilla" format="1">
  <advance width="380"/>
  <unicode hex="00E7"/>
  <outline>
    <contour>
      <point x="333" y="430" type="curve"/>
      <point x="348" y="476" type="line"/>
      <point x="291" y="503"/>
      <point x="224" y="516"/>
      <point x="166" y="504" type="curve" smooth="yes"/>
      <point x="121" y="494"/>
      <point x="83" y="470"/>
      <point x="56" y="426" type="curve" smooth="yes"/>
      <point x="38" y="394"/>
      <point x="31" y="362"/>
      <point x="29" y="318" type="curve"/>
      <point x="29" y="173" type="line" smooth="yes"/>
      <point x="29" y="75"/>
      <point x="73" y="23"/>
      <point x="141" y="1" type="curve" smooth="yes"/>
      <point x="201" y="-18"/>
      <point x="283" y="-13"/>
      <point x="350" y="5" type="curve"/>
      <point x="339" y="55" type="line"/>
      <point x="339" y="55"/>
      <point x="217" y="26"/>
      <point x="153" y="52" type="curve" smooth="yes"/>
      <point x="100" y="71"/>
      <point x="84" y="119"/>
      <point x="84" y="185" type="curve" smooth="yes"/>
      <point x="84" y="305" type="line" smooth="yes"/>
      <point x="84" y="340"/>
      <point x="91" y="371"/>
      <point x="103" y="394" type="curve" smooth="yes"/>
      <point x="119" y="426"/>
      <point x="145" y="446"/>
      <point x="175" y="453" type="curve" smooth="yes"/>
      <point x="218" y="464"/>
      <point x="285" y="452"/>
    </contour>
    <contour>
      <point x="209" y="-39" type="curve" smooth="yes"/>
      <point x="201" y="-40"/>
      <point x="192" y="-40"/>
      <point x="183" y="-41" type="curve"/>
      <point x="209" y="3" type="line"/>
      <point x="160" y="3" type="line"/>
      <point x="119" y="-65" type="line"/>
      <point x="134" y="-95" type="line"/>
      <point x="160" y="-92"/>
      <point x="185" y="-88"/>
      <point x="207" y="-88" type="curve" smooth="yes"/>
      <point x="241" y="-87"/>
      <point x="266" y="-95"/>
      <point x="266" y="-129" type="curve" smooth="yes"/>
      <point x="266" y="-169"/>
      <point x="234" y="-180"/>
      <point x="194" y="-180" type="curve" smooth="yes"/>
      <point x="168" y="-180"/>
      <point x="138" y="-175"/>
      <point x="110" y="-168" type="curve"/>
      <point x="104" y="-198"/>
      <point x="106" y="-189"/>
      <point x="99" y="-217" type="curve"/>
      <point x="102" y="-218"/>
      <point x="153" y="-230"/>
      <point x="201" y="-230" type="curve" smooth="yes"/>
      <point x="280" y="-230"/>
      <point x="315" y="-180"/>
      <point x="315" y="-132" type="curve" smooth="yes"/>
      <point x="315" y="-81"/>
      <point x="276" y="-31"/>
    </contour>
  </outline>
</glyph>
<glyph name="idieresis" format="1">
  <advance width="265"/>
  <unicode hex="00EF"/>
  <outline>
    <contour>
      <point x="103" y="0" type="line"/>
      <point x="159" y="0" type="line"/>
      <point x="159" y="499" type="line"/>
      <point x="103" y="499" type="line"/>
    </contour>
    <contour>
      <point x="244" y="603" type="curve" smooth="yes"/>
      <point x="244" y="620"/>
      <point x="228" y="636"/>
      <point x="209" y="636" type="curve" smooth="yes"/>
      <point x="191" y="636"/>
      <point x="176" y="620"/>
      <point x="176" y="603" type="curve" smooth="yes"/>
      <point x="176" y="584"/>
      <point x="191" y="569"/>
      <point x="209" y="569" type="curve" smooth="yes"/>
      <point x="228" y="569"/>
      <point x="244" y="584"/>
    </contour>
    <contour>
      <point x="85" y="603" type="curve" smooth="yes"/>
      <point x="85" y="620"/>
      <point x="70" y="636"/>
      <point x="52" y="636" type="curve" smooth="yes"/>
      <point x="33" y="636"/>
      <point x="18" y="620"/>
      <point x="18" y="603" type="curve" smooth="yes"/>
      <point x="18" y="584"/>
      <point x="33" y="569"/>
      <point x="52" y="569" type="curve" smooth="yes"/>
      <point x="70" y="569"/>
      <point x="85" y="584"/>
    </contour>
  </outline>
</glyph>
<glyph name="Abreve" format="1">
  <advance width="545"/>
  <unicode hex="0102"/>
  <outline>
    <contour>
      <point x="525" y="0" type="line"/>
      <point x="298" y="698" type="line"/>
      <point x="245" y="698" type="line"/>
      <point x="21" y="0" type="line"/>
      <point x="81" y="0" type="line"/>
      <point x="159" y="244" type="line"/>
      <point x="386" y="244" type="line"/>
      <point x="466" y="0" type="line"/>
    </contour>
    <contour>
      <point x="174" y="299" type="line"/>
      <point x="271" y="612" type="line"/>
      <point x="371" y="299" type="line"/>
    </contour>
    <contour>
      <point x="207" y="855" type="curve" smooth="yes"/>
      <point x="207" y="861" type="line"/>
      <point x="161" y="861" type="line"/>
      <point x="161" y="855" type="line" smooth="yes"/>
      <point x="161" y="792"/>
      <point x="212" y="741"/>
      <point x="274" y="741" type="curve" smooth="yes"/>
      <point x="337" y="741"/>
      <point x="388" y="792"/>
      <point x="388" y="855" type="curve" smooth="yes"/>
      <point x="388" y="861" type="line"/>
      <point x="343" y="861" type="line"/>
      <point x="343" y="855" type="line" smooth="yes"/>
      <point x="343" y="817"/>
      <point x="312" y="787"/>
      <point x="274" y="787" type="curve" smooth="yes"/>
      <point x="237" y="787"/>
      <point x="207" y="817"/>
    </contour>
  </outline>
</glyph>
<glyph name="itilde" format="1">
  <advance width="296"/>
  <unicode hex="0129"/>
  <outline>
    <contour>
      <point x="118" y="0" type="line"/>
      <point x="174" y="0" type="line"/>
      <point x="174" y="499" type="line"/>
      <point x="118" y="499" type="line"/>
    </contour>
    <contour>
      <point x="276" y="573" type="curve"/>
      <point x="255" y="620" type="line"/>
      <point x="242" y="609"/>
      <point x="221" y="601"/>
      <point x="203" y="601" type="curve" smooth="yes"/>
      <point x="189" y="601"/>
      <point x="143" y="626"/>
      <point x="95" y="626" type="curve" smooth="yes"/>
      <point x="67" y="626"/>
      <point x="40" y="618"/>
      <point x="17" y="594" type="curve"/>
      <point x="39" y="548" type="line"/>
      <point x="54" y="559"/>
      <point x="65" y="566"/>
      <point x="85" y="568" type="curve" smooth="yes"/>
      <point x="115" y="570"/>
      <point x="158" y="543"/>
      <point x="205" y="543" type="curve" smooth="yes"/>
      <point x="229" y="543"/>
      <point x="253" y="551"/>
    </contour>
  </outline>
</glyph>
<glyph name="Iogonek" format="1">
  <advance width="253"/>
  <unicode hex="012E"/>
  <outline>
    <contour>
      <point x="38" y="649" type="line"/>
      <point x="106" y="647" type="line"/>
      <point x="106" y="0" type="line"/>
      <point x="162" y="0" type="line"/>
      <point x="162" y="698" type="line"/>
      <point x="38" y="698" type="line"/>
    </contour>
    <contour>
      <point x="86" y="-125" type="curve" smooth="yes"/>
      <point x="157" y="-1" type="line"/>
      <point x="157" y="8" type="line"/>
      <point x="113" y="4" type="line"/>
      <point x="113" y="-1" type="line"/>
      <point x="50" y="-111" type="line" smooth="yes"/>
      <point x="8" y="-184"/>
      <point x="58" y="-254"/>
      <point x="146" y="-229" type="curve" smooth="yes"/>
      <point x="164" y="-223"/>
      <point x="248" y="-194"/>
      <point x="250" y="-193" type="curve"/>
      <point x="233" y="-153" type="line"/>
      <point x="233" y="-153"/>
      <point x="191" y="-167"/>
      <point x="136" y="-187" type="curve" smooth="yes"/>
      <point x="86" y="-204"/>
      <point x="60" y="-172"/>
    </contour>
  </outline>
</glyph>
<glyph name="Kcommaaccent" format="1">
  <advance width="457"/>
  <unicode hex="0136"/>
  <outline>
    <contour>
      <point x="97" y="366" type="line"/>
      <point x="97" y="698" type="line"/>
      <point x="41" y="698" type="line"/>
      <point x="41" y="0" type="line"/>
      <point x="97" y="0" type="line"/>
      <point x="97" y="268" type="line"/>
      <point x="144" y="344" type="line"/>
      <point x="370" y="0" type="line"/>
      <point x="437" y="0" type="line"/>
      <point x="181" y="397" type="line"/>
      <point x="385" y="698" type="line"/>
      <point x="320" y="698" type="line"/>
    </contour>
    <contour>
      <point x="203" y="-198" type="curve"/>
      <point x="220" y="-210" type="line"/>
      <point x="240" y="-191"/>
      <point x="273" y="-153"/>
      <point x="273" y="-90" type="curve" smooth="yes"/>
      <point x="273" y="-70"/>
      <point x="258" y="-56"/>
      <point x="240" y="-56" type="curve" smooth="yes"/>
      <point x="221" y="-56"/>
      <point x="206" y="-72"/>
      <point x="206" y="-90" type="curve" smooth="yes"/>
      <point x="206" y="-107"/>
      <point x="218" y="-120"/>
      <point x="235" y="-123" type="curve"/>
      <point x="232" y="-144"/>
      <point x="225" y="-172"/>
    </contour>
  </outline>
</glyph>
<glyph name="lcaron" format="1">
  <advance width="253"/>
  <unicode hex="013E"/>
  <outline>
    <contour>
      <point x="98" y="0" type="line"/>
      <point x="153" y="0" type="line"/>
      <point x="153" y="698" type="line"/>
      <point x="98" y="698" type="line"/>
    </contour>
    <contour>
      <point x="124" y="818" type="line"/>
      <point x="35" y="905" type="line"/>
      <point x="-4" y="868" type="line"/>
      <point x="124" y="743" type="line"/>
      <point x="256" y="869" type="line"/>
      <point x="217" y="908" type="line"/>
    </contour>
  </outline>
</glyph>
<glyph name="ncommaaccent" format="1">
  <advance width="442"/>
  <unicode hex="0146"/>
  <outline>
    <contour>
      <point x="351" y="342" type="curve" smooth="yes"/>
      <point x="351" y="0" type="line"/>
      <point x="406" y="0" type="line"/>
      <point x="406" y="345" type="line" smooth="yes"/>
      <point x="406" y="450"/>
      <point x="342" y="508"/>
      <point x="232" y="508" type="curve" smooth="yes"/>
      <point x="183" y="508"/>
      <point x="132" y="492"/>
      <point x="94" y="465" type="curve"/>
      <point x="94" y="499" type="line"/>
      <point x="38" y="499" type="line"/>
      <point x="38" y="0" type="line"/>
      <point x="94" y="0" type="line"/>
      <point x="94" y="424" type="line"/>
      <point x="135" y="447"/>
      <point x="176" y="458"/>
      <point x="221" y="458" type="curve" smooth="yes"/>
      <point x="285" y="458"/>
      <point x="351" y="432"/>
    </contour>
    <contour>
      <point x="188" y="-198" type="curve"/>
      <point x="206" y="-210" type="line"/>
      <point x="226" y="-191"/>
      <point x="259" y="-153"/>
      <point x="259" y="-90" type="curve" smooth="yes"/>
      <point x="259" y="-70"/>
      <point x="243" y="-56"/>
      <point x="226" y="-56" type="curve" smooth="yes"/>
      <point x="207" y="-56"/>
      <point x="192" y="-72"/>
      <point x="192" y="-90" type="curve" smooth="yes"/>
      <point x="192" y="-107"/>
      <point x="204" y="-120"/>
      <point x="220" y="-123" type="curve"/>
      <point x="217" y="-144"/>
      <point x="210" y="-172"/>
    </contour>
  </outline>
</glyph>
<glyph name="omacron" format="1">
  <advance width="429"/>
  <unicode hex="014D"/>
  <outline>
    <contour>
      <point x="398" y="184" type="curve" smooth="yes"/>
      <point x="398" y="315" type="line" smooth="yes"/>
      <point x="398" y="436"/>
      <point x="334" y="510"/>
      <point x="215" y="510" type="curve" smooth="yes"/>
      <point x="96" y="510"/>
      <point x="29" y="442"/>
      <point x="29" y="315" type="curve" smooth="yes"/>
      <point x="29" y="184" type="line" smooth="yes"/>
      <point x="29" y="75"/>
      <point x="93" y="-10"/>
      <point x="217" y="-10" type="curve" smooth="yes"/>
      <point x="340" y="-10"/>
      <point x="398" y="71"/>
    </contour>
    <contour>
      <point x="341" y="315" type="curve" smooth="yes"/>
      <point x="341" y="174" type="line" smooth="yes"/>
      <point x="341" y="92"/>
      <point x="300" y="40"/>
      <point x="217" y="40" type="curve" smooth="yes"/>
      <point x="136" y="40"/>
      <point x="85" y="94"/>
      <point x="85" y="174" type="curve" smooth="yes"/>
      <point x="85" y="315" type="line" smooth="yes"/>
      <point x="85" y="411"/>
      <point x="129" y="460"/>
      <point x="217" y="460" type="curve" smooth="yes"/>
      <point x="303" y="460"/>
      <point x="341" y="411"/>
    </contour>
    <contour>
      <point x="103" y="548" type="line"/>
      <point x="323" y="548" type="line"/>
      <point x="323" y="605" type="line"/>
      <point x="103" y="605" type="line"/>
    </contour>
  </outline>
</glyph>
<glyph name="Rcaron" format="1">
  <advance width="508"/>
  <unicode hex="0158"/>
  <outline>
    <contour>
      <point x="255" y="818" type="line"/>
      <point x="166" y="906" type="line"/>
      <point x="128" y="868" type="line"/>
      <point x="255" y="743" type="line"/>
      <point x="387" y="869" type="line"/>
      <point x="349" y="908" type="line"/>
    </contour>
    <contour>
      <point x="276" y="698" type="curve" smooth="yes"/>
      <point x="41" y="698" type="line"/>
      <point x="41" y="0" type="line"/>
      <point x="97" y="0" type="line"/>
      <point x="97" y="244" type="line"/>
      <point x="276" y="244" type="line" smooth="yes"/>
      <point x="296" y="244"/>
      <point x="315" y="245"/>
      <point x="331" y="249" type="curve"/>
      <point x="418" y="0" type="line"/>
      <point x="474" y="0" type="line"/>
      <point x="382" y="264" type="line"/>
      <point x="444" y="294"/>
      <point x="474" y="359"/>
      <point x="474" y="472" type="curve" smooth="yes"/>
      <point x="474" y="643"/>
      <point x="403" y="698"/>
    </contour>
    <contour>
      <point x="281" y="299" type="curve" smooth="yes"/>
      <point x="97" y="299" type="line"/>
      <point x="97" y="645" type="line"/>
      <point x="281" y="645" type="line" smooth="yes"/>
      <point x="359" y="645"/>
      <point x="418" y="613"/>
      <point x="418" y="472" type="curve" smooth="yes"/>
      <point x="418" y="320"/>
      <point x="357" y="299"/>
    </contour>
  </outline>
</glyph>
<glyph name="Scedilla" format="1">
  <advance width="528"/>
  <unicode hex="015E"/>
  <outline>
    <contour>
      <point x="419" y="618" type="curve"/>
      <point x="436" y="670" type="line"/>
      <point x="390" y="695"/>
      <point x="331" y="708"/>
      <point x="273" y="707" type="curve" smooth="yes"/>
      <point x="218" y="707"/>
      <point x="164" y="693"/>
      <point x="125" y="664" type="curve"/>
      <point x="87" y="639"/>
      <point x="63" y="599"/>
      <point x="60" y="547" type="curve" smooth="yes"/>
      <point x="56" y="448"/>
      <point x="129" y="402"/>
      <point x="213" y="365" type="curve" smooth="yes"/>
      <point x="246" y="351"/>
      <point x="280" y="339"/>
      <point x="312" y="324" type="curve" smooth="yes"/>
      <point x="383" y="293"/>
      <point x="442" y="254"/>
      <point x="438" y="177" type="curve" smooth="yes"/>
      <point x="436" y="140"/>
      <point x="423" y="112"/>
      <point x="402" y="91" type="curve" smooth="yes"/>
      <point x="368" y="56"/>
      <point x="313" y="42"/>
      <point x="258" y="42" type="curve" smooth="yes"/>
      <point x="202" y="42"/>
      <point x="158" y="62"/>
      <point x="129" y="84" type="curve" smooth="yes"/>
      <point x="82" y="120"/>
      <point x="71" y="159"/>
      <point x="71" y="159" type="curve"/>
      <point x="26" y="132" type="line"/>
      <point x="26" y="132"/>
      <point x="44" y="77"/>
      <point x="102" y="35" type="curve" smooth="yes"/>
      <point x="138" y="9"/>
      <point x="190" y="-12"/>
      <point x="262" y="-12" type="curve" smooth="yes"/>
      <point x="326" y="-12"/>
      <point x="391" y="3"/>
      <point x="436" y="43" type="curve" smooth="yes"/>
      <point x="473" y="73"/>
      <point x="496" y="118"/>
      <point x="498" y="179" type="curve" smooth="yes"/>
      <point x="502" y="282"/>
      <point x="425" y="333"/>
      <point x="338" y="373" type="curve" smooth="yes"/>
      <point x="303" y="389"/>
      <point x="267" y="403"/>
      <point x="233" y="417" type="curve" smooth="yes"/>
      <point x="167" y="447"/>
      <point x="115" y="480"/>
      <point x="118" y="541" type="curve" smooth="yes"/>
      <point x="119" y="579"/>
      <point x="138" y="606"/>
      <point x="164" y="625" type="curve" smooth="yes"/>
      <point x="193" y="645"/>
      <point x="233" y="653"/>
      <point x="274" y="653" type="curve" smooth="yes"/>
      <point x="324" y="654"/>
      <point x="377" y="641"/>
    </contour>
    <contour>
      <point x="240" y="-44" type="curve"/>
      <point x="267" y="0" type="line"/>
      <point x="216" y="0" type="line"/>
      <point x="177" y="-69" type="line"/>
      <point x="190" y="-98" type="line"/>
      <point x="216" y="-96"/>
      <point x="242" y="-92"/>
      <point x="264" y="-91" type="curve" smooth="yes"/>
      <point x="298" y="-91"/>
      <point x="322" y="-98"/>
      <point x="322" y="-133" type="curve" smooth="yes"/>
      <point x="322" y="-173"/>
      <point x="290" y="-185"/>
      <point x="250" y="-184" type="curve" smooth="yes"/>
      <point x="224" y="-184"/>
      <point x="194" y="-178"/>
      <point x="168" y="-173" type="curve"/>
      <point x="160" y="-202"/>
      <point x="162" y="-193"/>
      <point x="156" y="-221" type="curve"/>
      <point x="159" y="-221"/>
      <point x="210" y="-233"/>
      <point x="257" y="-233" type="curve" smooth="yes"/>
      <point x="336" y="-233"/>
      <point x="372" y="-184"/>
      <point x="371" y="-135" type="curve" smooth="yes"/>
      <point x="371" y="-85"/>
      <point x="333" y="-35"/>
      <point x="267" y="-42" type="curve" smooth="yes"/>
      <point x="258" y="-43"/>
      <point x="249" y="-43"/>
    </contour>
  </outline>
</glyph>
<glyph name="Tcaron" format="1">
  <advance width="417"/>
  <unicode hex="0164"/>
  <outline>
    <contour>
      <point x="232" y="648" type="line"/>
      <point x="408" y="648" type="line"/>
      <point x="408" y="698" type="line"/>
      <point x="7" y="698" type="line"/>
      <point x="7" y="648" type="line"/>
      <point x="177" y="648" type="line"/>
      <point x="177" y="0" type="line"/>
      <point x="232" y="0" type="line"/>
    </contour>
    <contour>
      <point x="206" y="820" type="line"/>
      <point x="117" y="906" type="line"/>
      <point x="78" y="869" type="line"/>
      <point x="206" y="744" type="line"/>
      <point x="338" y="870" type="line"/>
      <point x="299" y="909" type="line"/>
    </contour>
  </outline>
</glyph>
<glyph name="Uogonek" format="1">
  <advance width="496"/>
  <unicode hex="0172"/>
  <outline>
    <contour>
      <point x="456" y="185" type="curve" smooth="yes"/>
      <point x="456" y="698" type="line"/>
      <point x="401" y="698" type="line"/>
      <point x="401" y="186" type="line" smooth="yes"/>
      <point x="401" y="140"/>
      <point x="386" y="106"/>
      <point x="362" y="81" type="curve" smooth="yes"/>
      <point x="335" y="54"/>
      <point x="295" y="42"/>
      <point x="247" y="42" type="curve" smooth="yes"/>
      <point x="205" y="42"/>
      <point x="167" y="53"/>
      <point x="141" y="74" type="curve" smooth="yes"/>
      <point x="110" y="98"/>
      <point x="93" y="135"/>
      <point x="93" y="186" type="curve" smooth="yes"/>
      <point x="93" y="698" type="line"/>
      <point x="38" y="698" type="line"/>
      <point x="38" y="185" type="line" smooth="yes"/>
      <point x="38" y="118"/>
      <point x="59" y="68"/>
      <point x="99" y="36" type="curve" smooth="yes"/>
      <point x="141" y="4"/>
      <point x="191" y="-11"/>
      <point x="248" y="-11" type="curve" smooth="yes"/>
      <point x="304" y="-11"/>
      <point x="353" y="4"/>
      <point x="394" y="36" type="curve" smooth="yes"/>
      <point x="435" y="68"/>
      <point x="456" y="118"/>
    </contour>
    <contour>
      <point x="199" y="-135" type="curve" smooth="yes"/>
      <point x="270" y="-11" type="line"/>
      <point x="270" y="-3" type="line"/>
      <point x="226" y="-6" type="line"/>
      <point x="226" y="-11" type="line"/>
      <point x="163" y="-122" type="line" smooth="yes"/>
      <point x="121" y="-194"/>
      <point x="171" y="-264"/>
      <point x="259" y="-239" type="curve" smooth="yes"/>
      <point x="277" y="-233"/>
      <point x="361" y="-204"/>
      <point x="363" y="-204" type="curve"/>
      <point x="346" y="-163" type="line"/>
      <point x="346" y="-163"/>
      <point x="303" y="-178"/>
      <point x="249" y="-197" type="curve" smooth="yes"/>
      <point x="199" y="-215"/>
      <point x="173" y="-183"/>
    </contour>
  </outline>
</glyph>
<glyph name="wcircumflex" format="1">
  <advance width="704"/>
  <unicode hex="0175"/>
  <outline>
    <contour>
      <point x="379" y="498" type="line"/>
      <point x="322" y="498" type="line"/>
      <point x="210" y="57" type="line"/>
      <point x="76" y="498" type="line"/>
      <point x="18" y="498" type="line"/>
      <point x="170" y="0" type="line"/>
      <point x="247" y="0" type="line"/>
      <point x="349" y="404" type="line"/>
      <point x="449" y="0" type="line"/>
      <point x="526" y="0" type="line"/>
      <point x="681" y="498" type="line"/>
      <point x="622" y="498" type="line"/>
      <point x="489" y="57" type="line"/>
    </contour>
    <contour>
      <point x="354" y="693" type="line"/>
      <point x="443" y="605" type="line"/>
      <point x="482" y="642" type="line"/>
      <point x="354" y="769" type="line"/>
      <point x="223" y="641" type="line"/>
      <point x="261" y="603" type="line"/>
    </contour>
  </outline>
</glyph>
<glyph name="zacute" format="1">
  <advance width="425"/>
  <unicode hex="017A"/>
  <outline>
    <contour>
      <point x="376" y="499" type="line"/>
      <point x="39" y="499" type="line"/>
      <point x="39" y="449" type="line"/>
      <point x="304" y="449" type="line"/>
      <point x="30" y="50" type="line"/>
      <point x="30" y="0" type="line"/>
      <point x="397" y="0" type="line"/>
      <point x="397" y="51" type="line"/>
      <point x="99" y="51" type="line"/>
      <point x="376" y="450" type="line"/>
    </contour>
    <contour>
      <point x="233" y="650" type="curve" smooth="yes"/>
      <point x="195" y="543" type="line"/>
      <point x="230" y="543" type="line"/>
      <point x="283" y="621" type="line"/>
      <point x="296" y="637"/>
      <point x="294" y="660"/>
      <point x="277" y="670" type="curve" smooth="yes"/>
      <point x="259" y="680"/>
      <point x="239" y="669"/>
    </contour>
  </outline>
</glyph>
<glyph name="Zdotaccent" format="1">
  <advance width="545"/>
  <unicode hex="017B"/>
  <outline>
    <contour>
      <point x="509" y="698" type="line"/>
      <point x="41" y="698" type="line"/>
      <point x="41" y="647" type="line"/>
      <point x="437" y="647" type="line"/>
      <point x="29" y="50" type="line"/>
      <point x="29" y="0" type="line"/>
      <point x="514" y="0" type="line"/>
      <point x="514" y="51" type="line"/>
      <point x="99" y="51" type="line"/>
      <point x="509" y="648" type="line"/>
    </contour>
    <contour>
      <point x="305" y="802" type="curve" smooth="yes"/>
      <point x="305" y="821"/>
      <point x="290" y="835"/>
      <point x="271" y="835" type="curve" smooth="yes"/>
      <point x="252" y="835"/>
      <point x="238" y="821"/>
      <point x="238" y="802" type="curve" smooth="yes"/>
      <point x="238" y="783"/>
      <point x="252" y="768"/>
      <point x="271" y="768" type="curve" smooth="yes"/>
      <point x="290" y="768"/>
      <point x="305" y="783"/>
    </contour>
  </outline>
</glyph>
<glyph name="Zcaron" format="1">
  <advance width="545"/>
  <unicode hex="017D"/>
  <outline>
    <contour>
      <point x="509" y="698" type="line"/>
      <point x="41" y="698" type="line"/>
      <point x="41" y="647" type="line"/>
      <point x="437" y="647" type="line"/>
      <point x="29" y="50" type="line"/>
      <point x="29" y="0" type="line"/>
      <point x="514" y="0" type="line"/>
      <point x="514" y="51" type="line"/>
      <point x="99" y="51" type="line"/>
      <point x="509" y="648" type="line"/>
    </contour>
    <contour>
      <point x="279" y="817" type="line"/>
      <point x="190" y="905" type="line"/>
      <point x="151" y="867" type="line"/>
      <point x="279" y="741" type="line"/>
      <point x="411" y="868" type="line"/>
      <point x="372" y="906" type="line"/>
    </contour>
  </outline>
</glyph>
<glyph name="caron" format="1">
  <advance width="418"/>
  <unicode hex="02C7"/>
  <outline>
    <contour>
      <point x="319" y="715" type="line"/>
      <point x="280" y="752" type="line"/>
      <point x="187" y="663" type="line"/>
      <point x="98" y="751" type="line"/>
      <point x="59" y="713" type="line"/>
      <point x="187" y="587" type="line"/>
    </contour>
  </outline>
</glyph>
<glyph name="breve" format="1">
  <advance width="381"/>
  <unicode hex="02D8"/>
  <outline>
    <contour>
      <point x="269" y="702" type="line"/>
      <point x="224" y="702" type="line"/>
      <point x="224" y="695" type="line" smooth="yes"/>
      <point x="224" y="657"/>
      <point x="195" y="627"/>
      <point x="157" y="627" type="curve" smooth="yes"/>
      <point x="120" y="627"/>
      <point x="89" y="657"/>
      <point x="89" y="695" type="curve" smooth="yes"/>
      <point x="89" y="702" type="line"/>
      <point x="44" y="702" type="line"/>
      <point x="44" y="695" type="line" smooth="yes"/>
      <point x="44" y="632"/>
      <point x="95" y="582"/>
      <point x="157" y="582" type="curve" smooth="yes"/>
      <point x="219" y="582"/>
      <point x="269" y="632"/>
      <point x="269" y="695" type="curve" smooth="yes"/>
    </contour>
  </outline>
</glyph>
<glyph name="circumflexcomb" format="1">
  <advance width="318"/>
  <unicode hex="0302"/>
  <outline>
    <contour>
      <point x="159" y="693" type="line"/>
      <point x="248" y="605" type="line"/>
      <point x="288" y="642" type="line"/>
      <point x="159" y="769" type="line"/>
      <point x="28" y="641" type="line"/>
      <point x="67" y="603" type="line"/>
    </contour>
  </outline>
</glyph>
<glyph name="macroncomb" format="1">
  <advance width="286"/>
  <unicode hex="0304"/>
  <outline>
    <contour>
      <point x="32" y="617" type="line"/>
      <point x="252" y="617" type="line"/>
      <point x="252" y="675" type="line"/>
      <point x="32" y="675" type="line"/>
    </contour>
  </outline>
</glyph>
<glyph name="Epsilontonos" format="1">
  <advance width="444"/>
  <unicode hex="0388"/>
  <outline>
    <contour>
      <point x="80" y="0" type="line"/>
      <point x="411" y="0" type="line"/>
      <point x="411" y="50" type="line"/>
      <point x="135" y="50" type="line"/>
      <point x="135" y="356" type="line"/>
      <point x="306" y="356" type="line"/>
      <point x="326" y="411" type="line"/>
      <point x="135" y="411" type="line"/>
      <point x="135" y="646" type="line"/>
      <point x="412" y="646" type="line"/>
      <point x="412" y="698" type="line"/>
      <point x="80" y="698" type="line"/>
    </contour>
    <contour>
      <point x="58" y="805" type="curve" smooth="yes"/>
      <point x="20" y="697" type="line"/>
      <point x="55" y="697" type="line"/>
      <point x="108" y="777" type="line"/>
      <point x="122" y="792"/>
      <point x="119" y="815"/>
      <point x="102" y="825" type="curve"/>
      <point x="84" y="834"/>
      <point x="64" y="823"/>
    </contour>
  </outline>
</glyph>
<glyph name="Omicrontonos" format="1">
  <advance width="504"/>
  <unicode hex="038C"/>
  <outline>
    <contour>
      <point x="49" y="506" type="curve" smooth="yes"/>
      <point x="49" y="185" type="line" smooth="yes"/>
      <point x="49" y="56"/>
      <point x="141" y="-11"/>
      <point x="259" y="-11" type="curve" smooth="yes"/>
      <point x="382" y="-11"/>
      <point x="468" y="64"/>
      <point x="468" y="185" type="curve" smooth="yes"/>
      <point x="468" y="505" type="line" smooth="yes"/>
      <point x="468" y="635"/>
      <point x="392" y="714"/>
      <point x="260" y="714" type="curve" smooth="yes"/>
      <point x="128" y="714"/>
      <point x="49" y="642"/>
    </contour>
    <contour>
      <point x="105" y="186" type="curve" smooth="yes"/>
      <point x="105" y="515" type="line" smooth="yes"/>
      <point x="105" y="612"/>
      <point x="165" y="661"/>
      <point x="258" y="661" type="curve" smooth="yes"/>
      <point x="351" y="661"/>
      <point x="413" y="612"/>
      <point x="413" y="515" type="curve" smooth="yes"/>
      <point x="413" y="186" type="line" smooth="yes"/>
      <point x="413" y="88"/>
      <point x="349" y="42"/>
      <point x="258" y="42" type="curve" smooth="yes"/>
      <point x="170" y="42"/>
      <point x="105" y="90"/>
    </contour>
    <contour>
      <point x="68" y="821" type="curve"/>
      <point x="29" y="714" type="line"/>
      <point x="64" y="714" type="line"/>
      <point x="118" y="793" type="line"/>
      <point x="130" y="807"/>
      <point x="129" y="831"/>
      <point x="112" y="840" type="curve" smooth="yes"/>
      <point x="93" y="850"/>
      <point x="73" y="839"/>
    </contour>
  </outline>
</glyph>
<glyph name="Epsilon" format="1">
  <advance width="405"/>
  <unicode hex="0395"/>
  <outline>
    <contour>
      <point x="41" y="0" type="line"/>
      <point x="372" y="0" type="line"/>
      <point x="372" y="50" type="line"/>
      <point x="97" y="50" type="line"/>
      <point x="97" y="356" type="line"/>
      <point x="269" y="356" type="line"/>
      <point x="287" y="411" type="line"/>
      <point x="97" y="411" type="line"/>
      <point x="97" y="646" type="line"/>
      <point x="374" y="646" type="line"/>
      <point x="374" y="698" type="line"/>
      <point x="41" y="698" type="line"/>
    </contour>
  </outline>
</glyph>
<glyph name="Sigma" format="1">
  <advance width="521"/>
  <unicode hex="03A3"/>
  <outline>
    <contour>
      <point x="343" y="50" type="curve" smooth="yes"/>
      <point x="117" y="50" type="line"/>
      <point x="317" y="386" type="line"/>
      <point x="141" y="645" type="line"/>
      <point x="449" y="645" type="line"/>
      <point x="468" y="698" type="line"/>
      <point x="41" y="698" type="line"/>
      <point x="250" y="384" type="line"/>
      <point x="25" y="0" type="line"/>
      <point x="347" y="0" type="line" smooth="yes"/>
      <point x="426" y="0"/>
      <point x="470" y="31"/>
      <point x="491" y="106" type="curve"/>
      <point x="448" y="121" type="line"/>
      <point x="433" y="76"/>
      <point x="394" y="50"/>
    </contour>
  </outline>
</glyph>
<glyph name="Omegagreek" format="1">
  <advance width="580"/>
  <unicode hex="03A9"/>
  <outline>
    <contour>
      <point x="533" y="194" type="curve" smooth="yes"/>
      <point x="533" y="501" type="line" smooth="yes"/>
      <point x="533" y="623"/>
      <point x="470" y="704"/>
      <point x="346" y="704" type="curve" smooth="yes"/>
      <point x="234" y="704" type="line" smooth="yes"/>
      <point x="109" y="704"/>
      <point x="47" y="623"/>
      <point x="47" y="501" type="curve" smooth="yes"/>
      <point x="47" y="194" type="line" smooth="yes"/>
      <point x="47" y="127"/>
      <point x="70" y="78"/>
      <point x="115" y="50" type="curve"/>
      <point x="51" y="50" type="line"/>
      <point x="33" y="-1" type="line"/>
      <point x="261" y="-1" type="line"/>
      <point x="261" y="50" type="line"/>
      <point x="201" y="50"/>
      <point x="152" y="77"/>
      <point x="135" y="98" type="curve" smooth="yes"/>
      <point x="114" y="122"/>
      <point x="103" y="154"/>
      <point x="103" y="194" type="curve" smooth="yes"/>
      <point x="103" y="510" type="line" smooth="yes"/>
      <point x="103" y="598"/>
      <point x="155" y="652"/>
      <point x="234" y="652" type="curve" smooth="yes"/>
      <point x="346" y="652" type="line" smooth="yes"/>
      <point x="425" y="652"/>
      <point x="478" y="598"/>
      <point x="478" y="510" type="curve" smooth="yes"/>
      <point x="478" y="194" type="line" smooth="yes"/>
      <point x="478" y="140"/>
      <point x="458" y="102"/>
      <point x="422" y="80" type="curve" smooth="yes"/>
      <point x="403" y="69"/>
      <point x="362" y="50"/>
      <point x="318" y="50" type="curve"/>
      <point x="318" y="-1" type="line"/>
      <point x="546" y="-1" type="line"/>
      <point x="530" y="50" type="line"/>
      <point x="460" y="50" type="line"/>
      <point x="510" y="79"/>
      <point x="533" y="128"/>
    </contour>
  </outline>
</glyph>
<glyph name="etatonos" format="1">
  <advance width="437"/>
  <unicode hex="03AE"/>
  <outline>
    <contour>
      <point x="348" y="342" type="curve" smooth="yes"/>
      <point x="348" y="-186" type="line"/>
      <point x="403" y="-209" type="line"/>
      <point x="403" y="345" type="line" smooth="yes"/>
      <point x="403" y="450"/>
      <point x="339" y="508"/>
      <point x="229" y="508" type="curve" smooth="yes"/>
      <point x="180" y="508"/>
      <point x="129" y="492"/>
      <point x="91" y="465" type="curve"/>
      <point x="91" y="499" type="line"/>
      <point x="35" y="499" type="line"/>
      <point x="35" y="0" type="line"/>
      <point x="91" y="0" type="line"/>
      <point x="91" y="424" type="line"/>
      <point x="131" y="447"/>
      <point x="173" y="458"/>
      <point x="218" y="458" type="curve" smooth="yes"/>
      <point x="282" y="458"/>
      <point x="348" y="432"/>
    </contour>
    <contour>
      <point x="244" y="654" type="curve" smooth="yes"/>
      <point x="206" y="548" type="line"/>
      <point x="241" y="548" type="line"/>
      <point x="294" y="627" type="line"/>
      <point x="307" y="641"/>
      <point x="305" y="664"/>
      <point x="288" y="674" type="curve" smooth="yes"/>
      <point x="270" y="684"/>
      <point x="250" y="673"/>
    </contour>
  </outline>
</glyph>
<glyph name="delta" format="1">
  <advance width="431"/>
  <unicode hex="03B4"/>
  <outline>
    <contour>
      <point x="241" y="651" type="curve" smooth="yes"/>
      <point x="334" y="651" type="line"/>
      <point x="356" y="698" type="line"/>
      <point x="244" y="698" type="line"/>
      <point x="172" y="702"/>
      <point x="129" y="653"/>
      <point x="126" y="597" type="curve" smooth="yes"/>
      <point x="125" y="572"/>
      <point x="134" y="541"/>
      <point x="165" y="510" type="curve"/>
      <point x="169" y="507"/>
      <point x="171" y="505"/>
      <point x="174" y="502" type="curve"/>
      <point x="161" y="498"/>
      <point x="114" y="486"/>
      <point x="82" y="457" type="curve" smooth="yes"/>
      <point x="48" y="424"/>
      <point x="28" y="373"/>
      <point x="28" y="308" type="curve" smooth="yes"/>
      <point x="28" y="183" type="line" smooth="yes"/>
      <point x="28" y="62"/>
      <point x="88" y="-11"/>
      <point x="215" y="-11" type="curve" smooth="yes"/>
      <point x="338" y="-11"/>
      <point x="400" y="54"/>
      <point x="400" y="183" type="curve" smooth="yes"/>
      <point x="400" y="279" type="line" smooth="yes"/>
      <point x="400" y="321"/>
      <point x="390" y="367"/>
      <point x="368" y="402" type="curve" smooth="yes"/>
      <point x="340" y="444"/>
      <point x="315" y="463"/>
      <point x="284" y="485" type="curve" smooth="yes"/>
      <point x="268" y="496"/>
      <point x="235" y="520"/>
      <point x="230" y="524" type="curve" smooth="yes"/>
      <point x="203" y="546"/>
      <point x="180" y="558"/>
      <point x="180" y="598" type="curve" smooth="yes"/>
      <point x="180" y="630"/>
      <point x="205" y="651"/>
    </contour>
    <contour>
      <point x="344" y="294" type="curve" smooth="yes"/>
      <point x="344" y="173" type="line" smooth="yes"/>
      <point x="344" y="84"/>
      <point x="301" y="38"/>
      <point x="216" y="38" type="curve" smooth="yes"/>
      <point x="136" y="38"/>
      <point x="84" y="85"/>
      <point x="84" y="173" type="curve" smooth="yes"/>
      <point x="84" y="308" type="line" smooth="yes"/>
      <point x="84" y="356"/>
      <point x="96" y="394"/>
      <point x="120" y="418" type="curve" smooth="yes"/>
      <point x="163" y="463"/>
      <point x="228" y="463"/>
      <point x="228" y="463" type="curve"/>
      <point x="237" y="457"/>
      <point x="246" y="452"/>
      <point x="254" y="447" type="curve" smooth="yes"/>
      <point x="305" y="413"/>
      <point x="344" y="360"/>
    </contour>
  </outline>
</glyph>
<glyph name="epsilon" format="1">
  <advance width="395"/>
  <unicode hex="03B5"/>
  <outline>
    <contour>
      <point x="301" y="443" type="curve"/>
      <point x="301" y="495" type="line"/>
      <point x="262" y="505"/>
      <point x="228" y="509"/>
      <point x="199" y="509" type="curve" smooth="yes"/>
      <point x="87" y="509"/>
      <point x="46" y="441"/>
      <point x="47" y="378" type="curve" smooth="yes"/>
      <point x="48" y="335"/>
      <point x="69" y="296"/>
      <point x="102" y="278" type="curve"/>
      <point x="50" y="256"/>
      <point x="27" y="205"/>
      <point x="27" y="151" type="curve" smooth="yes"/>
      <point x="27" y="69"/>
      <point x="86" y="-11"/>
      <point x="202" y="-11" type="curve" smooth="yes"/>
      <point x="260" y="-11"/>
      <point x="324" y="2"/>
      <point x="371" y="23" type="curve"/>
      <point x="355" y="74" type="line"/>
      <point x="307" y="55"/>
      <point x="257" y="42"/>
      <point x="212" y="41" type="curve" smooth="yes"/>
      <point x="139" y="40"/>
      <point x="83" y="86"/>
      <point x="83" y="145" type="curve" smooth="yes"/>
      <point x="83" y="220"/>
      <point x="148" y="246"/>
      <point x="183" y="246" type="curve" smooth="yes"/>
      <point x="193" y="246"/>
      <point x="271" y="246"/>
      <point x="281" y="246" type="curve"/>
      <point x="301" y="300" type="line"/>
      <point x="182" y="300" type="line" smooth="yes"/>
      <point x="136" y="300"/>
      <point x="105" y="341"/>
      <point x="105" y="381" type="curve" smooth="yes"/>
      <point x="105" y="415"/>
      <point x="126" y="448"/>
      <point x="179" y="455" type="curve" smooth="yes"/>
      <point x="211" y="460"/>
      <point x="239" y="463"/>
    </contour>
  </outline>
</glyph>
<glyph name="xi" format="1">
  <advance width="430"/>
  <unicode hex="03BE"/>
  <outline>
    <contour>
      <point x="359" y="649" type="curve"/>
      <point x="381" y="700" type="line"/>
      <point x="381" y="700"/>
      <point x="292" y="700"/>
      <point x="235" y="700" type="curve" smooth="yes"/>
      <point x="143" y="700"/>
      <point x="89" y="635"/>
      <point x="92" y="546" type="curve" smooth="yes"/>
      <point x="94" y="504"/>
      <point x="103" y="453"/>
      <point x="159" y="404" type="curve"/>
      <point x="157" y="404"/>
      <point x="155" y="404"/>
      <point x="151" y="404" type="curve"/>
      <point x="80" y="398"/>
      <point x="28" y="356"/>
      <point x="28" y="254" type="curve" smooth="yes"/>
      <point x="28" y="226"/>
      <point x="28" y="197"/>
      <point x="28" y="168" type="curve" smooth="yes"/>
      <point x="28" y="21"/>
      <point x="114" y="-14"/>
      <point x="243" y="-10" type="curve" smooth="yes"/>
      <point x="269" y="-9"/>
      <point x="311" y="-7"/>
      <point x="344" y="-4" type="curve"/>
      <point x="344" y="-197" type="line"/>
      <point x="400" y="-211" type="line"/>
      <point x="400" y="51" type="line"/>
      <point x="374" y="48"/>
      <point x="277" y="41"/>
      <point x="240" y="38" type="curve" smooth="yes"/>
      <point x="106" y="33"/>
      <point x="84" y="80"/>
      <point x="84" y="175" type="curve" smooth="yes"/>
      <point x="84" y="195"/>
      <point x="84" y="228"/>
      <point x="84" y="251" type="curve" smooth="yes"/>
      <point x="84" y="341"/>
      <point x="144" y="358"/>
      <point x="180" y="358" type="curve" smooth="yes"/>
      <point x="243" y="358"/>
      <point x="288" y="346"/>
      <point x="288" y="346" type="curve"/>
      <point x="293" y="363"/>
      <point x="300" y="378"/>
      <point x="305" y="395" type="curve"/>
      <point x="305" y="395"/>
      <point x="283" y="400"/>
      <point x="273" y="403" type="curve"/>
      <point x="191" y="421"/>
      <point x="155" y="477"/>
      <point x="149" y="543" type="curve"/>
      <point x="147" y="607"/>
      <point x="181" y="649"/>
      <point x="238" y="649" type="curve" smooth="yes"/>
      <point x="274" y="649"/>
      <point x="359" y="649"/>
    </contour>
  </outline>
</glyph>
<glyph name="sigma" format="1">
  <advance width="468"/>
  <unicode hex="03C3"/>
  <outline>
    <contour>
      <point x="443" y="515" type="curve"/>
      <point x="410" y="541" type="line"/>
      <point x="389" y="519"/>
      <point x="356" y="504"/>
      <point x="335" y="502" type="curve" smooth="yes"/>
      <point x="307" y="498"/>
      <point x="262" y="510"/>
      <point x="214" y="510" type="curve" smooth="yes"/>
      <point x="126" y="510"/>
      <point x="28" y="468"/>
      <point x="28" y="319" type="curve" smooth="yes"/>
      <point x="28" y="184" type="line" smooth="yes"/>
      <point x="28" y="75"/>
      <point x="92" y="-10"/>
      <point x="216" y="-10" type="curve" smooth="yes"/>
      <point x="339" y="-10"/>
      <point x="397" y="71"/>
      <point x="397" y="184" type="curve" smooth="yes"/>
      <point x="397" y="319" type="line" smooth="yes"/>
      <point x="397" y="392"/>
      <point x="379" y="430"/>
      <point x="360" y="451" type="curve"/>
      <point x="390" y="459"/>
      <point x="419" y="479"/>
    </contour>
    <contour>
      <point x="340" y="333" type="curve" smooth="yes"/>
      <point x="340" y="174" type="line" smooth="yes"/>
      <point x="340" y="92"/>
      <point x="300" y="40"/>
      <point x="217" y="40" type="curve" smooth="yes"/>
      <point x="137" y="40"/>
      <point x="87" y="94"/>
      <point x="87" y="174" type="curve" smooth="yes"/>
      <point x="87" y="326" type="line" smooth="yes"/>
      <point x="87" y="428"/>
      <point x="156" y="457"/>
      <point x="214" y="457" type="curve" smooth="yes"/>
      <point x="245" y="457"/>
      <point x="278" y="449"/>
      <point x="306" y="447" type="curve"/>
      <point x="322" y="430"/>
      <point x="340" y="396"/>
    </contour>
  </outline>
</glyph>
<glyph name="upsilondieresis" format="1">
  <advance width="435"/>
  <unicode hex="03CB"/>
  <outline>
    <contour>
      <point x="402" y="184" type="curve" smooth="yes"/>
      <point x="402" y="499" type="line"/>
      <point x="348" y="499" type="line"/>
      <point x="348" y="174" type="line" smooth="yes"/>
      <point x="348" y="92"/>
      <point x="304" y="40"/>
      <point x="222" y="40" type="curve" smooth="yes"/>
      <point x="141" y="40"/>
      <point x="89" y="94"/>
      <point x="89" y="174" type="curve" smooth="yes"/>
      <point x="89" y="499" type="line"/>
      <point x="32" y="499" type="line"/>
      <point x="32" y="184" type="line" smooth="yes"/>
      <point x="32" y="75"/>
      <point x="96" y="-10"/>
      <point x="220" y="-10" type="curve" smooth="yes"/>
      <point x="344" y="-10"/>
      <point x="402" y="71"/>
    </contour>
    <contour>
      <point x="329" y="602" type="curve" smooth="yes"/>
      <point x="329" y="620"/>
      <point x="314" y="635"/>
      <point x="296" y="635" type="curve" smooth="yes"/>
      <point x="278" y="635"/>
      <point x="262" y="620"/>
      <point x="262" y="602" type="curve" smooth="yes"/>
      <point x="262" y="583"/>
      <point x="278" y="569"/>
      <point x="296" y="569" type="curve" smooth="yes"/>
      <point x="314" y="569"/>
      <point x="329" y="583"/>
    </contour>
    <contour>
      <point x="171" y="602" type="curve" smooth="yes"/>
      <point x="171" y="620"/>
      <point x="157" y="635"/>
      <point x="138" y="635" type="curve" smooth="yes"/>
      <point x="119" y="635"/>
      <point x="105" y="620"/>
      <point x="105" y="602" type="curve" smooth="yes"/>
      <point x="105" y="583"/>
      <point x="119" y="569"/>
      <point x="138" y="569" type="curve" smooth="yes"/>
      <point x="157" y="569"/>
      <point x="171" y="583"/>
    </contour>
  </outline>
</glyph>
<glyph name="wacute" format="1">
  <advance width="704"/>
  <unicode hex="1E83"/>
  <outline>
    <contour>
      <point x="379" y="498" type="line"/>
      <point x="322" y="498" type="line"/>
      <point x="210" y="57" type="line"/>
      <point x="76" y="498" type="line"/>
      <point x="18" y="498" type="line"/>
      <point x="170" y="0" type="line"/>
      <point x="247" y="0" type="line"/>
      <point x="349" y="404" type="line"/>
      <point x="449" y="0" type="line"/>
      <point x="526" y="0" type="line"/>
      <point x="681" y="498" type="line"/>
      <point x="622" y="498" type="line"/>
      <point x="489" y="57" type="line"/>
    </contour>
    <contour>
      <point x="302" y="603" type="line"/>
      <point x="337" y="603" type="line"/>
      <point x="390" y="682" type="line"/>
      <point x="403" y="696"/>
      <point x="401" y="719"/>
      <point x="383" y="729" type="curve" smooth="yes"/>
      <point x="366" y="739"/>
      <point x="346" y="728"/>
      <point x="339" y="710" type="curve" smooth="yes"/>
    </contour>
  </outline>
</glyph>
<glyph name="quotedblright" format="1">
  <advance width="307"/>
  <unicode hex="201D"/>
  <outline>
    <contour>
      <point x="29" y="557" type="curve"/>
      <point x="47" y="544" type="line"/>
      <point x="67" y="562"/>
      <point x="99" y="602"/>
      <point x="100" y="664" type="curve"/>
      <point x="99" y="684"/>
      <point x="84" y="698"/>
      <point x="66" y="698" type="curve" smooth="yes"/>
      <point x="47" y="698"/>
      <point x="33" y="683"/>
      <point x="33" y="664" type="curve" smooth="yes"/>
      <point x="33" y="648"/>
      <point x="45" y="635"/>
      <point x="60" y="631" type="curve"/>
      <point x="58" y="610"/>
      <point x="50" y="583"/>
    </contour>
    <contour>
      <point x="209" y="557" type="curve"/>
      <point x="226" y="544" type="line"/>
      <point x="246" y="562"/>
      <point x="279" y="602"/>
      <point x="279" y="664" type="curve" smooth="yes"/>
      <point x="279" y="684"/>
      <point x="264" y="698"/>
      <point x="245" y="698" type="curve" smooth="yes"/>
      <point x="228" y="698"/>
      <point x="212" y="683"/>
      <point x="212" y="664" type="curve" smooth="yes"/>
      <point x="212" y="648"/>
      <point x="224" y="635"/>
      <point x="240" y="631" type="curve"/>
      <point x="237" y="610"/>
      <point x="230" y="583"/>
    </contour>
  </outline>
</glyph>
<glyph name="fi" format="1">
  <advance width="364"/>
  <unicode hex="FB01"/>
  <outline>
    <contour>
      <point x="39" y="560" type="curve" smooth="yes"/>
      <point x="39" y="0" type="line"/>
      <point x="95" y="0" type="line"/>
      <point x="95" y="446" type="line"/>
      <point x="186" y="446" type="line"/>
      <point x="209" y="498" type="line"/>
      <point x="95" y="498" type="line"/>
      <point x="95" y="562" type="line" smooth="yes"/>
      <point x="95" y="617"/>
      <point x="130" y="652"/>
      <point x="185" y="652" type="curve" smooth="yes"/>
      <point x="207" y="652"/>
      <point x="235" y="645"/>
      <point x="269" y="621" type="curve"/>
      <point x="304" y="658" type="line"/>
      <point x="270" y="691"/>
      <point x="229" y="707"/>
      <point x="184" y="707" type="curve" smooth="yes"/>
      <point x="146" y="707"/>
      <point x="112" y="696"/>
      <point x="83" y="669" type="curve" smooth="yes"/>
      <point x="53" y="642"/>
      <point x="39" y="604"/>
    </contour>
    <contour>
      <point x="325" y="0" type="line"/>
      <point x="325" y="498" type="line"/>
      <point x="268" y="498" type="line"/>
      <point x="268" y="0" type="line"/>
    </contour>
  </outline>
</glyph>
<glyph name="ft" format="1">
  <advance width="469"/>
  <outline>
    <contour>
      <point x="324" y="132" type="curve" smooth="yes"/>
      <point x="324" y="446" type="line"/>
      <point x="356" y="446"/>
      <point x="389" y="446"/>
      <point x="421" y="446" type="curve"/>
      <point x="444" y="498" type="line"/>
      <point x="400" y="498"/>
      <point x="360" y="498"/>
      <point x="325" y="498" type="curve"/>
      <point x="325" y="549"/>
      <point x="325" y="602"/>
      <point x="325" y="654" type="curve"/>
      <point x="282" y="689"/>
      <point x="235" y="704"/>
      <point x="191" y="704" type="curve" smooth="yes"/>
      <point x="107" y="704"/>
      <point x="38" y="648"/>
      <point x="41" y="560" type="curve" smooth="yes"/>
      <point x="41" y="373"/>
      <point x="41" y="187"/>
      <point x="41" y="0" type="curve"/>
      <point x="60" y="0"/>
      <point x="78" y="0"/>
      <point x="97" y="0" type="curve"/>
      <point x="97" y="446" type="line"/>
      <point x="186" y="446" type="line"/>
      <point x="210" y="498" type="line"/>
      <point x="163" y="498"/>
      <point x="130" y="498"/>
      <point x="97" y="498" type="curve"/>
      <point x="97" y="510"/>
      <point x="97" y="527"/>
      <point x="97" y="548" type="curve" smooth="yes"/>
      <point x="97" y="618"/>
      <point x="139" y="646"/>
      <point x="188" y="646" type="curve" smooth="yes"/>
      <point x="209" y="646"/>
      <point x="238" y="642"/>
      <point x="269" y="621" type="curve"/>
      <point x="269" y="459"/>
      <point x="269" y="295"/>
      <point x="269" y="132" type="curve" smooth="yes"/>
      <point x="269" y="53"/>
      <point x="299" y="8"/>
      <point x="374" y="-13" type="curve"/>
      <point x="390" y="30" type="line"/>
      <point x="346" y="45"/>
      <point x="324" y="79"/>
    </contour>
  </outline>
</glyph>
<glyph name="ogonekcomb" format="1">
  <advance width="225"/>
  <outline>
    <contour>
      <point x="68" y="-122" type="curve" smooth="yes"/>
      <point x="139" y="2" type="line"/>
      <point x="139" y="11" type="line"/>
      <point x="95" y="8" type="line"/>
      <point x="95" y="3" type="line"/>
      <point x="31" y="-108" type="line" smooth="yes"/>
      <point x="-9" y="-180"/>
      <point x="39" y="-251"/>
      <point x="128" y="-226" type="curve" smooth="yes"/>
      <point x="147" y="-220"/>
      <point x="231" y="-190"/>
      <point x="232" y="-189" type="curve"/>
      <point x="214" y="-150" type="line"/>
      <point x="214" y="-150"/>
      <point x="172" y="-164"/>
      <point x="117" y="-184" type="curve" smooth="yes"/>
      <point x="68" y="-200"/>
      <point x="42" y="-168"/>
    </contour>
  </outline>
</glyph>
